# xmcd CD database file
#
# Track frame offsets:
#	150
#	32667
#	76625
#	103147
#	143595
#	164815
#	188137
#	205187
#	228170
#
# Disc length: 4251 seconds
#
# Revision: 1
# Processed by: cddbd v1.5.2PL0 Copyright (c) Steve Scherf et al.
# Submitted via: CDex 1.51
#
DISCID=6d109909
DTITLE=Örjan Fahlström - International Departures
DYEAR=2006
DGENRE=Jazz
TTITLE0=Hot Air
TTITLE1=Street Walk No. 2
TTITLE2=Diaphanous
TTITLE3=Spirit of St. Miles
TTITLE4=Heads Together
TTITLE5=Crystal Eagle
TTITLE6=Polarized
TTITLE7=The Danzer
TTITLE8=The Supreme Thrill of Existence
EXTD=YEAR: 2006
EXTT0=
EXTT1=
EXTT2=
EXTT3=
EXTT4=
EXTT5=
EXTT6=
EXTT7=
EXTT8=
PLAYORDER=
